<svg xmlns="http://www.w3.org/2000/svg" viewBox="0 0 32 32" width="32" height="32">
  <rect width="32" height="32" rx="6" fill="#c41a1a"/>
  <!-- hook -->
  <path d="M16,5 C16,5 16,3 17.5,3 C19,3 19.5,4.5 19,6 C18.5,7 17.5,7.5 16.5,7.5" fill="none" stroke="white" stroke-width="1.2" stroke-linecap="round"/>
  <!-- neck -->
  <line x1="16" y1="7.5" x2="16" y2="11" stroke="white" stroke-width="1.2" stroke-linecap="round"/>
  <!-- left shoulder -->
  <path d="M16,11 C15,11 12,12 9,14 C7.5,15 6.5,16 6,17" fill="none" stroke="white" stroke-width="1.2" stroke-linecap="round"/>
  <!-- right shoulder -->
  <path d="M16,11 C17,11 20,12 23,14 C24.5,15 25.5,16 26,17" fill="none" stroke="white" stroke-width="1.2" stroke-linecap="round"/>
  <!-- bottom bar -->
  <path d="M6,17 C5.5,17.5 5.5,18.5 6,19 L26,19 C26.5,18.5 26.5,17.5 26,17" fill="none" stroke="white" stroke-width="1.2" stroke-linecap="round"/>
</svg>
